<mxfile host="65bd71144e">
    <diagram id="-vx4CNJz0CDndSLK7DA5" name="Page-1">
        <mxGraphModel dx="1298" dy="914" grid="0" gridSize="10" guides="1" tooltips="1" connect="1" arrows="1" fold="1" page="1" pageScale="1" pageWidth="827" pageHeight="1169" background="#FFFFFF" math="0" shadow="0">
            <root>
                <mxCell id="0"/>
                <mxCell id="1" parent="0"/>
                <mxCell id="2" value="Data science process pipeline" style="text;html=1;align=center;verticalAlign=middle;whiteSpace=wrap;rounded=0;fontColor=#000000;fontSize=24;" parent="1" vertex="1">
                    <mxGeometry x="228" y="12" width="372" height="30" as="geometry"/>
                </mxCell>
                <mxCell id="10" value="" style="edgeStyle=none;html=1;fontColor=#000000;strokeColor=#1A1A1A;" parent="1" source="4" target="9" edge="1">
                    <mxGeometry relative="1" as="geometry"/>
                </mxCell>
                <mxCell id="4" value="&lt;font color=&quot;#000000&quot;&gt;Data acquisition&lt;/font&gt;" style="rounded=0;whiteSpace=wrap;html=1;fillColor=none;strokeColor=#000000;" parent="1" vertex="1">
                    <mxGeometry x="22" y="61" width="120" height="60" as="geometry"/>
                </mxCell>
                <mxCell id="12" value="" style="edgeStyle=none;html=1;strokeColor=#1A1A1A;fontColor=#000000;" parent="1" source="9" target="11" edge="1">
                    <mxGeometry relative="1" as="geometry"/>
                </mxCell>
                <mxCell id="9" value="&lt;font color=&quot;#000000&quot;&gt;Data storage&lt;/font&gt;" style="rounded=0;whiteSpace=wrap;html=1;fillColor=none;strokeColor=#000000;" parent="1" vertex="1">
                    <mxGeometry x="172.5" y="60" width="130.5" height="60" as="geometry"/>
                </mxCell>
                <mxCell id="144" style="edgeStyle=none;html=1;strokeColor=#000000;" edge="1" parent="1" source="11" target="13">
                    <mxGeometry relative="1" as="geometry"/>
                </mxCell>
                <mxCell id="11" value="&lt;font color=&quot;#000000&quot;&gt;Data processing&lt;/font&gt;" style="rounded=0;whiteSpace=wrap;html=1;fillColor=none;strokeColor=#000000;" parent="1" vertex="1">
                    <mxGeometry x="332.5" y="60" width="140" height="62" as="geometry"/>
                </mxCell>
                <mxCell id="146" value="" style="edgeStyle=none;html=1;strokeColor=#000000;" edge="1" parent="1" source="13" target="145">
                    <mxGeometry relative="1" as="geometry"/>
                </mxCell>
                <mxCell id="13" value="&lt;font color=&quot;#000000&quot;&gt;Data analysis&lt;/font&gt;" style="rounded=0;whiteSpace=wrap;html=1;fillColor=none;strokeColor=#000000;" parent="1" vertex="1">
                    <mxGeometry x="503" y="64" width="136" height="60" as="geometry"/>
                </mxCell>
                <mxCell id="145" value="&lt;font color=&quot;#000000&quot;&gt;Presentation&lt;/font&gt;" style="rounded=0;whiteSpace=wrap;html=1;fillColor=none;strokeColor=#000000;" vertex="1" parent="1">
                    <mxGeometry x="670" y="64" width="136" height="60" as="geometry"/>
                </mxCell>
                <mxCell id="150" value="&lt;span style=&quot;background-color: rgb(183, 221, 239);&quot;&gt;&lt;font color=&quot;#000000&quot;&gt;&amp;nbsp;Data acquisition &amp;amp; storage&lt;/font&gt;&lt;/span&gt;" style="rounded=0;whiteSpace=wrap;html=1;fillStyle=auto;strokeColor=#10739e;fillColor=#b1ddf0;align=left;fontStyle=0" vertex="1" parent="1">
                    <mxGeometry x="22" y="203" width="343" height="26" as="geometry"/>
                </mxCell>
                <mxCell id="158" value="" style="endArrow=none;dashed=1;html=1;strokeColor=#000000;fontColor=#000000;jumpStyle=arc;entryX=0;entryY=1;entryDx=0;entryDy=0;exitX=0;exitY=0;exitDx=0;exitDy=0;" edge="1" parent="1" source="151" target="9">
                    <mxGeometry width="50" height="50" relative="1" as="geometry">
                        <mxPoint x="387" y="286" as="sourcePoint"/>
                        <mxPoint x="437" y="236" as="targetPoint"/>
                    </mxGeometry>
                </mxCell>
                <mxCell id="151" value="&lt;span&gt;&lt;font color=&quot;#000000&quot;&gt;&amp;nbsp;Data processing&lt;/font&gt;&lt;/span&gt;" style="rounded=0;whiteSpace=wrap;html=1;fillStyle=auto;strokeColor=#56517e;fillColor=#d0cee2;align=left;fontStyle=0" vertex="1" parent="1">
                    <mxGeometry x="172" y="229" width="377" height="26" as="geometry"/>
                </mxCell>
                <mxCell id="153" value="&lt;span&gt;&lt;font color=&quot;#000000&quot;&gt;&amp;nbsp;Data analysis&lt;/font&gt;&lt;/span&gt;" style="rounded=0;whiteSpace=wrap;html=1;fillStyle=auto;strokeColor=#0e8088;fillColor=#b0e3e6;align=left;fontStyle=0" vertex="1" parent="1">
                    <mxGeometry x="410" y="255" width="298" height="26" as="geometry"/>
                </mxCell>
                <mxCell id="154" value="&lt;font color=&quot;#000000&quot;&gt;&amp;nbsp;Presentation&lt;/font&gt;" style="rounded=0;whiteSpace=wrap;html=1;fillStyle=auto;strokeColor=#b46504;fillColor=#fad7ac;align=left;fontStyle=0" vertex="1" parent="1">
                    <mxGeometry x="503" y="281" width="303" height="26" as="geometry"/>
                </mxCell>
                <mxCell id="156" value="" style="endArrow=none;dashed=1;html=1;strokeColor=#000000;fontColor=#000000;jumpStyle=arc;entryX=0;entryY=1;entryDx=0;entryDy=0;exitX=0;exitY=0;exitDx=0;exitDy=0;" edge="1" parent="1" source="150" target="4">
                    <mxGeometry width="50" height="50" relative="1" as="geometry">
                        <mxPoint x="35" y="177" as="sourcePoint"/>
                        <mxPoint x="437" y="236" as="targetPoint"/>
                    </mxGeometry>
                </mxCell>
                <mxCell id="157" value="" style="endArrow=none;dashed=1;html=1;strokeColor=#000000;fontColor=#000000;jumpStyle=arc;entryX=0;entryY=1;entryDx=0;entryDy=0;exitX=0.905;exitY=1.007;exitDx=0;exitDy=0;exitPerimeter=0;" edge="1" parent="1" source="150" target="11">
                    <mxGeometry width="50" height="50" relative="1" as="geometry">
                        <mxPoint x="387" y="286" as="sourcePoint"/>
                        <mxPoint x="437" y="236" as="targetPoint"/>
                    </mxGeometry>
                </mxCell>
                <mxCell id="159" value="" style="endArrow=none;dashed=1;html=1;strokeColor=#000000;fontColor=#000000;jumpStyle=arc;entryX=0;entryY=1;entryDx=0;entryDy=0;exitX=0.31;exitY=1.058;exitDx=0;exitDy=0;exitPerimeter=0;" edge="1" parent="1" source="153" target="13">
                    <mxGeometry width="50" height="50" relative="1" as="geometry">
                        <mxPoint x="616" y="204" as="sourcePoint"/>
                        <mxPoint x="437" y="236" as="targetPoint"/>
                    </mxGeometry>
                </mxCell>
                <mxCell id="161" value="" style="endArrow=none;dashed=1;html=1;strokeColor=#000000;fontColor=#000000;jumpStyle=arc;entryX=0;entryY=1;entryDx=0;entryDy=0;" edge="1" parent="1" target="145">
                    <mxGeometry width="50" height="50" relative="1" as="geometry">
                        <mxPoint x="670" y="279" as="sourcePoint"/>
                        <mxPoint x="437" y="236" as="targetPoint"/>
                    </mxGeometry>
                </mxCell>
                <mxCell id="162" value="" style="endArrow=none;dashed=1;html=1;strokeColor=#000000;fontColor=#000000;jumpStyle=arc;entryX=1;entryY=1;entryDx=0;entryDy=0;exitX=1;exitY=0;exitDx=0;exitDy=0;" edge="1" parent="1" source="154" target="145">
                    <mxGeometry width="50" height="50" relative="1" as="geometry">
                        <mxPoint x="387" y="286" as="sourcePoint"/>
                        <mxPoint x="437" y="236" as="targetPoint"/>
                    </mxGeometry>
                </mxCell>
                <mxCell id="152" value="Data science process timeline" style="text;html=1;align=center;verticalAlign=middle;whiteSpace=wrap;rounded=0;fontColor=#000000;fontSize=24;fillColor=#FFFFFF;" vertex="1" parent="1">
                    <mxGeometry x="228" y="159" width="372" height="30" as="geometry"/>
                </mxCell>
                <mxCell id="163" value="" style="endArrow=none;html=1;strokeColor=#000000;fontColor=#000000;jumpStyle=arc;entryX=0;entryY=1;entryDx=0;entryDy=0;" edge="1" parent="1">
                    <mxGeometry width="50" height="50" relative="1" as="geometry">
                        <mxPoint x="88" y="299" as="sourcePoint"/>
                        <mxPoint x="503" y="299" as="targetPoint"/>
                    </mxGeometry>
                </mxCell>
                <mxCell id="164" value="" style="endArrow=classic;html=1;strokeColor=#000000;fontColor=#000000;jumpStyle=arc;entryX=0.157;entryY=1.026;entryDx=0;entryDy=0;entryPerimeter=0;" edge="1" parent="1" target="153">
                    <mxGeometry width="50" height="50" relative="1" as="geometry">
                        <mxPoint x="457" y="298" as="sourcePoint"/>
                        <mxPoint x="437" y="236" as="targetPoint"/>
                    </mxGeometry>
                </mxCell>
                <mxCell id="165" value="&lt;span style=&quot;&quot;&gt;&lt;font style=&quot;font-size: 14px;&quot;&gt;Individual stages often overlap. Previous stages can be repeated as necessary.&lt;/font&gt;&lt;/span&gt;" style="text;html=1;strokeColor=none;fillColor=none;align=center;verticalAlign=middle;whiteSpace=wrap;rounded=0;labelBackgroundColor=#FFFFFF;fillStyle=auto;fontColor=#000000;" vertex="1" parent="1">
                    <mxGeometry x="155" y="323" width="518" height="30" as="geometry"/>
                </mxCell>
                <mxCell id="166" value="" style="endArrow=classic;html=1;strokeColor=#000000;fontSize=14;fontColor=#000000;jumpStyle=arc;entryX=0.193;entryY=1.039;entryDx=0;entryDy=0;entryPerimeter=0;" edge="1" parent="1" target="150">
                    <mxGeometry width="50" height="50" relative="1" as="geometry">
                        <mxPoint x="88" y="299" as="sourcePoint"/>
                        <mxPoint x="142" y="254" as="targetPoint"/>
                    </mxGeometry>
                </mxCell>
                <mxCell id="167" value="" style="endArrow=classic;html=1;strokeColor=#000000;fontSize=14;fontColor=#000000;jumpStyle=arc;entryX=0.32;entryY=1;entryDx=0;entryDy=0;entryPerimeter=0;" edge="1" parent="1" target="151">
                    <mxGeometry width="50" height="50" relative="1" as="geometry">
                        <mxPoint x="292" y="299" as="sourcePoint"/>
                        <mxPoint x="437" y="162" as="targetPoint"/>
                    </mxGeometry>
                </mxCell>
                <mxCell id="168" value="" style="endArrow=classic;html=1;strokeColor=#000000;fontSize=14;fontColor=#000000;jumpStyle=arc;rounded=0;" edge="1" parent="1">
                    <mxGeometry width="50" height="50" relative="1" as="geometry">
                        <mxPoint x="172" y="246" as="sourcePoint"/>
                        <mxPoint x="143" y="229" as="targetPoint"/>
                        <Array as="points">
                            <mxPoint x="143" y="246"/>
                        </Array>
                    </mxGeometry>
                </mxCell>
                <mxCell id="169" value="" style="endArrow=classic;html=1;strokeColor=#000000;fontSize=14;fontColor=#000000;jumpStyle=arc;rounded=0;entryX=0.274;entryY=1.039;entryDx=0;entryDy=0;entryPerimeter=0;" edge="1" parent="1" target="150">
                    <mxGeometry width="50" height="50" relative="1" as="geometry">
                        <mxPoint x="410" y="273" as="sourcePoint"/>
                        <mxPoint x="128" y="230" as="targetPoint"/>
                        <Array as="points">
                            <mxPoint x="116" y="273"/>
                        </Array>
                    </mxGeometry>
                </mxCell>
                <mxCell id="170" value="" style="endArrow=classic;html=1;rounded=0;strokeColor=#000000;fontSize=14;fontColor=#000000;jumpStyle=arc;entryX=0.472;entryY=1.032;entryDx=0;entryDy=0;entryPerimeter=0;" edge="1" parent="1" target="151">
                    <mxGeometry width="50" height="50" relative="1" as="geometry">
                        <mxPoint x="350" y="273" as="sourcePoint"/>
                        <mxPoint x="437" y="162" as="targetPoint"/>
                    </mxGeometry>
                </mxCell>
            </root>
        </mxGraphModel>
    </diagram>
</mxfile>